<?xml version="1.0" encoding="UTF-8" standalone="no"?>
<!DOCTYPE svg PUBLIC "-//W3C//DTD SVG 1.1//EN" "http://www.w3.org/Graphics/SVG/1.1/DTD/svg11.dtd">
<svg width="100%" height="100%" viewBox="0 0 653 653" version="1.1" xmlns="http://www.w3.org/2000/svg" xmlns:xlink="http://www.w3.org/1999/xlink" xml:space="preserve" xmlns:serif="http://www.serif.com/" style="fill-rule:evenodd;clip-rule:evenodd;stroke-linejoin:round;stroke-miterlimit:2;">
    <g transform="matrix(1,0,0,1,-628.845,-217.116)">
        <g transform="matrix(0.810812,0.810812,-0.810812,0.810812,1021.54,-93.1776)">
            <g transform="matrix(1.08344,0,0,1.08344,-657.108,-70.005)">
                <path d="M853.077,193.591C876.441,184.782 985.562,184.782 1008.93,193.591C1025.06,195.821 1068.09,230.409 1069.03,231.366C1089.84,252.038 1111.26,280.066 1130.19,312.846C1177.22,394.306 1191.12,474.461 1161.21,491.73C1132.82,508.117 1075.12,462.017 1029.11,387.64C1000.73,397.207 966.065,401.622 928.967,401.622C892.847,401.622 859.636,397.437 832.434,388.389C786.507,462.318 729.086,508.064 700.795,491.73C670.886,474.461 684.786,394.306 731.818,312.846C750.743,280.066 772.168,252.038 792.969,231.366C793.92,230.407 836.941,195.821 853.077,193.591Z" style="fill:rgb(235,235,235);"/>
                <g transform="matrix(1,0,0,1,5.08744,0)">
                    <g transform="matrix(1,0,0,1,10.1749,-92.5914)">
                        <g>
                            <path d="M856.725,318.696C856.725,316.169 854.673,314.118 852.146,314.118L842.989,314.118C840.462,314.118 838.41,316.169 838.41,318.696L838.41,376.693C838.41,379.22 840.462,381.272 842.989,381.272L852.146,381.272C854.673,381.272 856.725,379.22 856.725,376.693L856.725,318.696Z" style="fill:rgb(66,66,66);"/>
                            <g transform="matrix(6.12323e-17,1,-1,6.12323e-17,1195.26,-499.873)">
                                <path d="M856.725,318.696C856.725,316.169 854.673,314.118 852.146,314.118L842.989,314.118C840.462,314.118 838.41,316.169 838.41,318.696L838.41,376.693C838.41,379.22 840.462,381.272 842.989,381.272L852.146,381.272C854.673,381.272 856.725,379.22 856.725,376.693L856.725,318.696Z" style="fill:rgb(66,66,66);"/>
                            </g>
                        </g>
                    </g>
                    <g transform="matrix(1,0,0,1,0,0.763116)">
                        <g>
                            <circle cx="995.866" cy="232.464" r="9.921" style="fill:rgb(66,66,66);"/>
                            <g transform="matrix(1,0,0,1,0,43.752)">
                                <circle cx="995.866" cy="232.464" r="9.921" style="fill:rgb(66,66,66);"/>
                            </g>
                        </g>
                        <g transform="matrix(6.12323e-17,1,-1,6.12323e-17,1250.21,-741.526)">
                            <circle cx="995.866" cy="232.464" r="9.921" style="fill:rgb(255,50,50);"/>
                            <g transform="matrix(1,0,0,1,0,43.752)">
                                <circle cx="995.866" cy="232.464" r="9.921" style="fill:rgb(66,66,66);"/>
                            </g>
                        </g>
                    </g>
                </g>
                <g transform="matrix(1,0,0,1,4.45151,0)">
                    <g transform="matrix(1,0,0,1,26.2003,91.0652)">
                        <circle cx="849.857" cy="262.48" r="23.657" style="fill:rgb(66,66,66);"/>
                    </g>
                    <g transform="matrix(1,0,0,1,127.186,91.0652)">
                        <circle cx="849.857" cy="262.48" r="23.657" style="fill:rgb(66,66,66);"/>
                    </g>
                </g>
            </g>
            <g transform="matrix(1.14605,0,0,1.14605,-80.6893,-3.30839)">
                <g transform="matrix(1,0,0,1,-488.998,-90.9377)">
                    <path d="M866.181,431.653C907.512,431.653 941.068,493.075 941.068,568.729C941.068,644.383 866.181,823.205 866.181,823.205C866.181,823.205 791.294,644.383 791.294,568.729C791.294,493.075 824.849,431.653 866.181,431.653Z" style="fill:rgb(0,93,255);"/>
                </g>
                <g transform="matrix(0.605312,0,0,0.802715,-147.127,-1.13708)">
                    <path d="M866.181,431.653C907.512,431.653 941.068,493.075 941.068,568.729C941.068,644.383 866.181,823.205 866.181,823.205C866.181,823.205 791.294,644.383 791.294,568.729C791.294,493.075 824.849,431.653 866.181,431.653Z" style="fill:rgb(127,210,255);"/>
                </g>
                <g transform="matrix(0.387228,0,0,0.471234,41.7733,141.864)">
                    <path d="M866.181,431.653C907.512,431.653 941.068,493.075 941.068,568.729C941.068,644.383 866.181,823.205 866.181,823.205C866.181,823.205 791.294,644.383 791.294,568.729C791.294,493.075 824.849,431.653 866.181,431.653Z" style="fill:rgb(0,93,255);"/>
                </g>
            </g>
        </g>
    </g>
</svg>
