<?xml version="1.0" encoding="UTF-8" standalone="no"?>
<!DOCTYPE svg PUBLIC "-//W3C//DTD SVG 1.1//EN" "http://www.w3.org/Graphics/SVG/1.1/DTD/svg11.dtd">
<svg width="100%" height="100%" viewBox="0 0 1402 67" version="1.1" xmlns="http://www.w3.org/2000/svg" xmlns:xlink="http://www.w3.org/1999/xlink" xml:space="preserve" xmlns:serif="http://www.serif.com/" style="fill-rule:evenodd;clip-rule:evenodd;stroke-linejoin:round;stroke-miterlimit:2;">
    <g transform="matrix(1,0,0,1,-146.669,-59.2797)">
        <g transform="matrix(1,0,0,1,-12.7186,49.6025)">
            <g transform="matrix(103.054,0,0,103.054,159.387,75.8376)">
                <path d="M0.783,-0.642L0.783,-0.392L0.2,-0.392L0.2,-0.642L0,-0.642L0,0L0.2,0L0.2,-0.258L0.783,-0.258L0.783,0L0.992,0L0.992,-0.642L0.783,-0.642Z" style="fill:white;fill-rule:nonzero;"/>
            </g>
            <g transform="matrix(103.054,0,0,103.054,307.99,75.8376)">
                <path d="M0.992,-0.642L0.1,-0.642C0.067,-0.642 0.042,-0.632 0.025,-0.612C0.008,-0.593 0,-0.57 0,-0.542L0,-0.1C0,-0.061 0.01,-0.035 0.029,-0.021C0.049,-0.007 0.067,0 0.083,0L1,0C1.017,0 1.035,-0.007 1.054,-0.021C1.073,-0.034 1.083,-0.061 1.083,-0.1L1.083,-0.542C1.083,-0.569 1.076,-0.593 1.062,-0.612C1.049,-0.632 1.025,-0.642 0.992,-0.642ZM0.892,-0.508L0.892,-0.133L0.2,-0.133L0.2,-0.508L0.892,-0.508Z" style="fill:white;fill-rule:nonzero;"/>
            </g>
            <g transform="matrix(103.054,0,0,103.054,465.971,75.8376)">
                <path d="M0.975,0L0.975,-0.133L0.192,-0.133L0.192,-0.642L0,-0.642L0,-0.1C0,-0.061 0.013,-0.035 0.038,-0.021C0.063,-0.007 0.092,0 0.125,0L0.975,0Z" style="fill:white;fill-rule:nonzero;"/>
            </g>
            <g transform="matrix(103.054,0,0,103.054,612.823,75.8376)">
                <path d="M0.992,-0.642L0,-0.642L0,-0.508L0.892,-0.508L0.892,-0.133L0.192,-0.133L0.192,-0.383L0,-0.383L0,0L1,0C1.017,0 1.035,-0.007 1.054,-0.021C1.073,-0.034 1.083,-0.061 1.083,-0.1L1.083,-0.542C1.083,-0.569 1.076,-0.593 1.062,-0.612C1.049,-0.632 1.025,-0.642 0.992,-0.642Z" style="fill:white;fill-rule:nonzero;"/>
            </g>
            <g transform="matrix(103.054,0,0,103.054,846.342,75.8376)">
                <path d="M0.892,-0.642L0,-0.642L0,-0.509L0.8,-0.509L0.8,-0.392L0,-0.392L0,0L0.892,0C0.925,0 0.95,-0.008 0.967,-0.025C0.984,-0.043 0.992,-0.068 0.992,-0.1L0.992,-0.233C0.992,-0.255 0.986,-0.273 0.975,-0.288C0.97,-0.295 0.964,-0.301 0.959,-0.308C0.953,-0.314 0.947,-0.32 0.942,-0.325C0.954,-0.332 0.965,-0.341 0.975,-0.354C0.986,-0.369 0.992,-0.39 0.992,-0.417L0.992,-0.542C0.992,-0.569 0.984,-0.593 0.967,-0.613C0.95,-0.632 0.925,-0.642 0.892,-0.642ZM0.192,-0.258L0.8,-0.258L0.8,-0.133L0.192,-0.133L0.192,-0.258Z" style="fill:white;fill-rule:nonzero;"/>
            </g>
            <g transform="matrix(103.054,0,0,103.054,994.945,75.8376)">
                <path d="M0.992,-0.642L0.1,-0.642C0.067,-0.642 0.042,-0.632 0.025,-0.612C0.008,-0.593 0,-0.57 0,-0.542L0,-0.1C0,-0.061 0.01,-0.035 0.029,-0.021C0.049,-0.007 0.067,0 0.083,0L1,0C1.017,0 1.035,-0.007 1.054,-0.021C1.073,-0.034 1.083,-0.061 1.083,-0.1L1.083,-0.542C1.083,-0.569 1.076,-0.593 1.062,-0.612C1.049,-0.632 1.025,-0.642 0.992,-0.642ZM0.892,-0.508L0.892,-0.133L0.2,-0.133L0.2,-0.508L0.892,-0.508Z" style="fill:white;fill-rule:nonzero;"/>
            </g>
            <g transform="matrix(103.054,0,0,103.054,1152.93,75.8376)">
                <path d="M0.992,-0.642L0.1,-0.642C0.067,-0.642 0.042,-0.632 0.025,-0.612C0.008,-0.593 0,-0.57 0,-0.542L0,-0.1C0,-0.061 0.01,-0.035 0.029,-0.021C0.049,-0.007 0.067,0 0.083,0L1,0C1.017,0 1.035,-0.007 1.054,-0.021C1.073,-0.034 1.083,-0.061 1.083,-0.1L1.083,-0.542C1.083,-0.569 1.076,-0.593 1.062,-0.612C1.049,-0.632 1.025,-0.642 0.992,-0.642ZM0.892,-0.508L0.892,-0.133L0.2,-0.133L0.2,-0.508L0.892,-0.508Z" style="fill:white;fill-rule:nonzero;"/>
            </g>
            <g transform="matrix(103.054,0,0,103.054,1310.91,75.8376)">
                <path d="M0.1,-0.642C0.067,-0.642 0.042,-0.632 0.025,-0.613C0.008,-0.594 0,-0.571 0,-0.542L0,-0.258L0.8,-0.258L0.8,-0.133L0,-0.133L0,0L0.892,0C0.925,0 0.95,-0.008 0.967,-0.025C0.984,-0.043 0.992,-0.068 0.992,-0.1L0.992,-0.392L0.2,-0.392L0.2,-0.509L0.992,-0.509L0.992,-0.642L0.1,-0.642Z" style="fill:white;fill-rule:nonzero;"/>
            </g>
            <g transform="matrix(103.054,0,0,103.054,1459.51,75.8376)">
                <path d="M0.983,-0.642L0,-0.642L0,-0.508L0.392,-0.508L0.392,0L0.592,0L0.592,-0.508L0.983,-0.508L0.983,-0.642Z" style="fill:white;fill-rule:nonzero;"/>
            </g>
        </g>
    </g>
</svg>
